<?xml version="1.0" standalone="no"?>
<!DOCTYPE svg PUBLIC "-//W3C//DTD SVG 20010904//EN"
 "http://www.w3.org/TR/2001/REC-SVG-20010904/DTD/svg10.dtd">
<svg version="1.0" xmlns="http://www.w3.org/2000/svg"
 width="225.000000pt" height="225.000000pt" viewBox="0 0 225.000000 225.000000"
 preserveAspectRatio="xMidYMid meet">

<g transform="translate(0.000000,225.000000) scale(0.100000,-0.100000)"
fill="#000000" stroke="none">
<path d="M901 2218 c-206 -40 -381 -131 -538 -281 -170 -163 -275 -342 -329
-562 -24 -101 -21 -408 6 -517 51 -204 131 -347 285 -506 222 -231 487 -344
805 -345 520 -2 975 365 1091 878 6 28 13 122 15 211 5 181 -8 266 -66 426
-111 305 -383 564 -700 666 -164 53 -390 65 -569 30z m434 -388 c74 -34 101
-59 114 -107 13 -45 13 -137 2 -208 -5 -29 -5 -52 0 -56 5 -3 13 -20 18 -37
13 -45 -3 -95 -47 -143 -64 -69 -82 -114 -82 -199 l0 -76 63 -13 c91 -19 168
-64 241 -142 70 -74 129 -182 124 -226 -8 -73 -154 -96 -603 -96 -340 0 -487
13 -564 50 -31 16 -36 22 -34 51 2 60 61 162 133 233 73 73 145 113 232 131
l58 12 0 78 c0 91 -17 134 -82 204 -48 52 -62 116 -35 158 13 20 15 38 8 107
-10 102 -1 181 25 216 72 96 289 129 429 63z"/>
</g>
</svg>
