<?xml version="1.0" standalone="no"?>
<!DOCTYPE svg PUBLIC "-//W3C//DTD SVG 20010904//EN"
 "http://www.w3.org/TR/2001/REC-SVG-20010904/DTD/svg10.dtd">
<svg version="1.0" xmlns="http://www.w3.org/2000/svg"
 width="225.000000pt" height="225.000000pt" viewBox="0 0 225.000000 225.000000"
 preserveAspectRatio="xMidYMid meet">

<g transform="translate(0.000000,225.000000) scale(0.100000,-0.100000)"
fill="#000000" stroke="none">
<path d="M872 1631 c-2 -87 -32 -181 -58 -181 -8 0 -14 -8 -14 -18 0 -21 -43
-62 -64 -62 -8 0 -17 -12 -21 -27 -4 -16 -10 -22 -12 -15 -3 6 -9 10 -13 7 -5
-3 0 -31 11 -62 10 -31 19 -77 20 -102 0 -42 1 -44 11 -21 11 24 12 23 18 -20
4 -25 3 -48 -2 -51 -5 -3 -2 -12 7 -19 13 -11 14 -10 9 5 -6 14 -4 16 6 10 10
-6 12 -4 7 9 -4 10 -3 15 3 11 6 -3 10 -14 10 -23 0 -15 1 -15 16 0 10 10 18
40 21 79 5 67 14 86 32 74 26 -15 41 -66 42 -142 2 -89 10 -113 42 -113 39 0
47 19 47 107 0 60 5 91 16 108 23 35 34 31 34 -13 0 -45 24 -72 63 -72 23 0
31 8 50 48 17 37 28 48 50 50 23 3 30 -2 42 -32 9 -20 15 -67 15 -109 0 -77 9
-97 45 -97 35 0 45 20 45 91 0 61 3 70 26 88 32 25 38 26 58 5 11 -10 16 -34
16 -74 0 -65 15 -90 54 -90 35 0 43 17 49 105 4 44 15 124 27 179 28 138 27
219 -6 284 -27 55 -84 110 -140 137 -79 37 -192 28 -268 -22 -33 -21 -43 -24
-58 -14 -63 39 -105 54 -167 59 l-67 4 -2 -81z m155 -163 c-3 -7 -5 -2 -5 12
0 14 2 19 5 13 2 -7 2 -19 0 -25z m-217 -349 c0 -15 -18 -19 -23 -6 -3 8 1 14
9 14 8 0 14 -4 14 -8z m170 -29 c0 -33 -3 -40 -20 -40 -12 0 -20 7 -20 18 0
14 2 15 10 2 7 -11 10 -6 10 20 0 26 -3 31 -10 20 -8 -13 -10 -12 -10 3 0 10
8 17 20 17 17 0 20 -7 20 -40z"/>
</g>
</svg>
