<?xml version="1.0" standalone="no"?>
<!DOCTYPE svg PUBLIC "-//W3C//DTD SVG 20010904//EN"
 "http://www.w3.org/TR/2001/REC-SVG-20010904/DTD/svg10.dtd">
<svg version="1.0" xmlns="http://www.w3.org/2000/svg"
 width="225.000000pt" height="225.000000pt" viewBox="0 0 225.000000 225.000000"
 preserveAspectRatio="xMidYMid meet">

<g transform="translate(0.000000,225.000000) scale(0.100000,-0.100000)"
fill="#000000" stroke="none">
<path d="M751 2239 c-58 -11 -114 -50 -148 -101 l-28 -41 -3 -344 -3 -343 75
0 76 0 -33 46 c-40 57 -43 123 -8 173 40 55 119 78 174 50 31 -16 336 -319
353 -351 18 -35 18 -91 0 -126 -17 -32 -322 -335 -353 -351 -36 -18 -97 -13
-134 12 -76 50 -88 142 -29 216 l32 41 -76 0 -76 0 0 -355 0 -354 32 -37 c18
-21 55 -48 83 -60 48 -23 60 -24 293 -24 l242 0 0 -34 c0 -153 76 -246 201
-246 44 0 94 18 333 120 155 67 297 132 317 145 21 13 46 43 58 68 l21 44 -2
864 -3 864 -24 36 c-32 47 -75 75 -131 88 -56 12 -1176 13 -1239 0z"/>
</g>
</svg>
