<?xml version="1.0" standalone="no"?>
<!DOCTYPE svg PUBLIC "-//W3C//DTD SVG 20010904//EN"
 "http://www.w3.org/TR/2001/REC-SVG-20010904/DTD/svg10.dtd">
<svg version="1.0" xmlns="http://www.w3.org/2000/svg"
 width="225.000000pt" height="225.000000pt" viewBox="0 0 225.000000 225.000000"
 preserveAspectRatio="xMidYMid meet">

<g transform="translate(0.000000,225.000000) scale(0.100000,-0.100000)"
fill="#000000" stroke="none">
<path d="M1001 2069 c-96 -13 -236 -60 -329 -110 -271 -145 -453 -414 -492
-730 -44 -355 139 -727 453 -918 68 -41 168 -86 217 -96 14 -2 50 -12 80 -21
108 -32 373 -20 465 21 17 8 52 21 78 29 206 68 413 260 509 475 16 36 34 75
39 86 5 11 18 54 28 96 91 359 -52 759 -351 984 -62 46 -227 133 -263 138 -11
1 -25 6 -31 10 -50 31 -283 52 -403 36z m291 -114 c315 -66 556 -291 650 -605
29 -97 35 -283 14 -390 -55 -272 -253 -512 -509 -618 -310 -129 -673 -57 -912
182 -96 96 -146 169 -192 282 -49 122 -67 225 -60 364 9 203 85 380 227 533
120 129 280 218 450 252 90 18 245 18 332 0z"/>
<path d="M388 1288 c19 -19 16 -165 -3 -175 -10 -6 0 -9 30 -10 40 -2 43 0 30
13 -8 9 -15 31 -15 50 0 31 3 35 22 32 16 -2 25 -14 33 -42 14 -48 36 -66 59
-47 9 8 16 19 16 25 0 6 -4 5 -9 -3 -7 -11 -13 -6 -24 21 -8 20 -20 39 -27 43
-8 5 -4 11 12 19 32 16 35 50 6 70 -28 20 -150 24 -130 4z m107 -32 c0 -16 -7
-33 -16 -39 -26 -16 -49 -1 -49 31 0 36 8 44 40 40 20 -2 25 -8 25 -32z"/>
<path d="M593 1293 c15 -4 17 -17 17 -93 0 -76 -2 -89 -17 -92 -10 -2 19 -5
65 -6 81 -2 82 -2 92 24 14 37 6 55 -10 24 -17 -32 -29 -40 -62 -40 -26 0 -28
3 -28 45 0 48 19 62 39 28 8 -14 10 -10 10 22 0 32 -2 36 -10 23 -15 -27 -36
-21 -41 10 -6 43 0 52 38 52 26 0 37 -6 48 -27 l15 -28 1 33 0 32 -87 -1 c-49
-1 -80 -3 -70 -6z"/>
<path d="M823 1285 c-12 -8 -27 -31 -33 -50 -23 -68 24 -137 92 -134 20 1 19
2 -6 9 -39 12 -46 25 -46 93 0 44 5 62 20 77 24 24 5 27 -27 5z"/>
<path d="M906 1288 c12 -6 27 -20 32 -32 10 -20 11 -19 11 9 1 27 -2 30 -32
31 -28 1 -29 0 -11 -8z"/>
<path d="M1013 1293 c15 -4 17 -17 17 -93 0 -76 -2 -89 -17 -93 -10 -3 7 -4
37 -4 30 0 47 2 38 5 -16 3 -18 16 -18 92 0 76 2 89 18 93 9 3 -8 5 -38 5 -30
0 -47 -2 -37 -5z"/>
<path d="M1137 1282 c-37 -41 -11 -82 60 -97 43 -9 58 -28 43 -54 -19 -37 -92
-22 -110 22 -7 18 -9 15 -9 -18 0 -23 3 -35 7 -28 6 10 15 10 40 1 42 -16 84
-1 96 35 14 38 -1 59 -54 74 -68 20 -83 39 -54 67 8 9 11 16 6 16 -5 0 -16 -8
-25 -18z"/>
<path d="M1215 1286 c8 -6 21 -20 29 -31 15 -19 15 -19 16 10 0 26 -4 30 -30
31 -24 1 -27 -1 -15 -10z"/>
<path d="M1291 1263 c0 -21 3 -31 6 -23 9 24 35 50 50 50 10 0 13 -21 13 -89
0 -77 -2 -90 -17 -94 -10 -2 7 -4 37 -4 30 0 47 2 38 4 -16 4 -18 17 -18 94 0
100 13 115 51 57 12 -18 18 -25 15 -15 -3 10 -6 27 -6 38 0 17 -8 19 -85 19
l-85 0 1 -37z"/>
<path d="M1493 1293 c15 -4 17 -17 17 -93 0 -76 -2 -89 -17 -92 -10 -2 23 -4
72 -4 l90 1 3 35 c2 31 1 33 -9 15 -18 -31 -40 -45 -71 -45 -27 0 -28 2 -28
45 0 51 17 60 43 23 15 -22 16 -21 16 27 0 48 -1 49 -16 28 -25 -37 -43 -29
-43 18 l0 40 37 -3 c28 -2 41 -9 50 -28 l13 -25 0 33 0 32 -87 -1 c-49 -1 -80
-3 -70 -6z"/>
<path d="M1703 1289 c14 -8 17 -24 17 -89 0 -65 -3 -81 -17 -89 -14 -8 -7 -10
30 -9 34 1 44 4 33 10 -11 6 -16 23 -16 49 0 36 2 40 22 37 16 -2 25 -14 33
-42 14 -48 36 -66 59 -47 9 8 16 19 15 25 0 7 -2 6 -6 -1 -8 -22 -18 -15 -32
22 -7 19 -17 35 -22 35 -17 0 -9 19 10 25 32 10 37 46 11 67 -17 13 -39 18
-89 18 -50 -1 -62 -3 -48 -11z m111 -21 c15 -25 -3 -52 -38 -56 -24 -3 -26 0
-26 31 0 18 3 37 7 41 12 12 45 2 57 -16z"/>
<path d="M913 1183 c19 -5 23 -42 7 -61 -7 -9 -7 -9 2 -2 7 6 16 6 25 -1 10
-9 13 -4 13 24 0 25 5 37 18 40 9 3 -5 5 -33 5 -27 0 -42 -2 -32 -5z"/>
<path d="M1072 968 c-8 -8 -12 -47 -12 -112 l0 -99 -24 23 c-26 23 -52 22 -62
-4 -6 -16 20 -70 72 -152 l35 -54 95 0 95 0 15 36 c10 24 14 63 12 127 -3 90
-4 92 -28 95 -14 2 -29 8 -34 13 -6 5 -20 9 -33 9 -14 0 -23 6 -23 15 0 9 -9
15 -25 15 -22 0 -25 4 -25 38 0 38 -14 62 -35 62 -6 0 -16 -5 -23 -12z m48
-123 c5 -91 6 -103 8 -47 2 64 4 72 22 72 22 0 28 -17 33 -95 l3 -50 2 58 c2
50 5 57 22 57 18 0 20 -7 20 -55 0 -30 5 -55 10 -55 6 0 10 21 10 46 0 38 3
45 18 42 15 -3 17 -16 17 -104 0 -132 -2 -134 -114 -134 l-87 0 -49 81 c-52
86 -61 121 -33 127 12 2 25 -9 40 -35 l23 -38 3 115 c3 131 5 143 29 138 16
-3 19 -19 23 -123z"/>
</g>
</svg>
