<?xml version="1.0" standalone="no"?>
<!DOCTYPE svg PUBLIC "-//W3C//DTD SVG 20010904//EN"
 "http://www.w3.org/TR/2001/REC-SVG-20010904/DTD/svg10.dtd">
<svg version="1.0" xmlns="http://www.w3.org/2000/svg"
 width="274.000000pt" height="184.000000pt" viewBox="0 0 274.000000 184.000000"
 preserveAspectRatio="xMidYMid meet">

<g transform="translate(0.000000,184.000000) scale(0.100000,-0.100000)"
fill="#000000" stroke="none">
<path d="M1170 1595 c-84 -19 -174 -51 -226 -81 -36 -21 -53 -24 -147 -24
l-107 0 30 -59 c17 -32 30 -62 30 -66 0 -5 -12 -33 -27 -64 -25 -49 -28 -67
-28 -151 0 -84 3 -101 28 -148 105 -201 366 -248 531 -97 22 20 40 34 41 33 1
-2 16 -24 34 -50 18 -27 34 -48 35 -48 2 0 18 23 36 50 l32 50 40 -36 c186
-167 475 -90 554 148 24 72 16 177 -19 247 -15 29 -27 60 -27 69 0 8 14 39 30
69 l30 53 -110 0 c-106 0 -113 1 -180 35 -118 60 -196 77 -365 81 -107 3 -169
-1 -215 -11z m323 -51 c28 -3 84 -14 122 -26 l70 -21 -50 -12 c-127 -29 -225
-119 -259 -236 l-12 -41 -13 44 c-33 115 -131 204 -256 233 l-50 12 74 23
c113 35 212 41 374 24z m-347 -149 c120 -59 177 -190 140 -320 -14 -45 -29
-69 -69 -110 -114 -114 -269 -114 -383 0 -91 91 -108 208 -46 318 75 132 222
178 358 112z m670 5 c82 -35 147 -125 160 -223 14 -97 -54 -219 -150 -270 -59
-31 -184 -31 -242 0 -53 28 -99 74 -127 127 -33 62 -31 174 5 242 68 131 217
183 354 124z"/>
<path d="M940 1299 c-93 -54 -112 -167 -43 -250 51 -60 125 -74 199 -38 117
56 119 230 3 289 -49 26 -114 25 -159 -1z m130 -44 c103 -53 66 -208 -50 -208
-85 0 -135 85 -95 163 28 54 90 73 145 45z"/>
<path d="M982 1188 c-18 -18 -15 -54 6 -69 14 -11 15 -11 5 1 -16 18 -17 52
-1 68 7 7 10 12 7 12 -3 0 -10 -5 -17 -12z"/>
<path d="M1048 1188 c16 -16 15 -50 0 -68 -11 -12 -10 -12 5 -1 25 19 20 81
-6 81 -7 0 -7 -4 1 -12z"/>
<path d="M1640 1309 c-120 -50 -136 -212 -29 -291 65 -48 180 -27 225 42 73
111 9 249 -119 257 -29 1 -63 -2 -77 -8z m121 -62 c18 -12 39 -39 47 -59 13
-33 12 -41 -4 -75 -25 -51 -81 -79 -126 -64 -73 26 -104 90 -73 154 17 36 63
66 101 67 12 0 36 -10 55 -23z"/>
<path d="M2111 1454 c0 -11 3 -14 6 -6 3 7 2 16 -1 19 -3 4 -6 -2 -5 -13z"/>
<path d="M640 601 c0 -26 17 -36 35 -21 18 15 8 40 -16 40 -12 0 -19 -7 -19
-19z"/>
<path d="M358 592 c-12 -2 -18 -13 -18 -33 0 -24 -4 -29 -25 -29 -16 0 -25 -6
-25 -15 0 -9 9 -15 25 -15 24 0 25 -2 25 -76 0 -97 9 -114 60 -114 30 0 38 3
34 14 -3 8 -15 16 -27 18 -20 3 -22 10 -25 81 -3 77 -3 77 23 77 16 0 25 6 25
15 0 9 -9 15 -24 15 -21 0 -25 6 -28 33 -2 25 -7 32 -20 29z"/>
<path d="M480 420 c0 -103 1 -110 20 -110 18 0 20 7 20 70 0 63 3 74 25 96 15
14 32 23 40 20 10 -4 15 1 15 14 0 25 -36 27 -62 3 -17 -15 -18 -15 -18 0 0
10 -8 17 -20 17 -19 0 -20 -7 -20 -110z"/>
<path d="M640 420 c0 -103 1 -110 20 -110 19 0 20 7 20 110 0 103 -1 110 -20
110 -19 0 -20 -7 -20 -110z"/>
<path d="M730 375 c0 -148 1 -155 20 -155 18 0 20 7 20 56 0 50 2 55 18 48 9
-4 34 -9 54 -12 31 -3 41 1 63 23 21 23 25 38 25 85 0 77 -25 110 -82 110 -25
0 -49 -7 -60 -17 -17 -15 -18 -15 -18 0 0 10 -8 17 -20 17 -19 0 -20 -7 -20
-155z m144 103 c35 -49 9 -138 -39 -138 -43 0 -74 53 -61 104 14 56 72 75 100
34z"/>
</g>
</svg>
